<svg width="237" height="295" viewBox="0 0 237 295" fill="none" xmlns="http://www.w3.org/2000/svg">
<path fill-rule="evenodd" clip-rule="evenodd" d="M190.863 198.5C218.926 178.292 237 146.609 237 110.989C237 49.9612 183.946 0.488617 118.5 0.488617C53.0543 0.488617 0 49.9612 0 110.989C0 146.956 18.4281 178.909 46.9601 199.087L86 243.041H151.301L190.863 198.5Z" fill="#FF0000"/>
<path fill-rule="evenodd" clip-rule="evenodd" d="M164.162 198.377C181.923 178.132 193.363 146.39 193.363 110.704C193.363 49.5638 159.784 0 118.363 0C76.9413 0 43.3626 49.5638 43.3626 110.704C43.3626 146.737 55.026 178.75 73.0842 198.965L97.793 243H139.123L164.162 198.377Z" fill="white"/>
<path fill-rule="evenodd" clip-rule="evenodd" d="M146.869 198.377C158.118 178.132 165.363 146.39 165.363 110.704C165.363 49.5638 144.096 0 117.863 0C91.6291 0 70.3626 49.5638 70.3626 110.704C70.3626 146.737 77.7494 178.75 89.1863 198.965L104.835 243H131.011L146.869 198.377Z" fill="#FF0000"/>
<path d="M85.3626 256H151.363V295H85.3626V256Z" fill="#E09D51"/>
<rect x="85.3626" y="243" width="3" height="13" fill="black"/>
<rect x="148.363" y="243" width="3" height="13" fill="black"/>
<rect x="116.363" y="243" width="3" height="13" fill="black"/>
</svg>
